<svg width="17" height="20" viewBox="0 0 17 20" fill="none" xmlns="http://www.w3.org/2000/svg">
<path d="M13.8034 13.8032L9.82562 17.781C9.47405 18.1322 8.99742 18.3295 8.50047 18.3295C8.00352 18.3295 7.52689 18.1322 7.17531 17.781L3.19657 13.8032C2.14771 12.7542 1.43344 11.4179 1.14409 9.96303C0.854728 8.50818 1.00328 7.00021 1.57094 5.62978C2.13861 4.25936 3.09991 3.08804 4.33327 2.26395C5.56663 1.43986 7.01666 1 8.5 1C9.98334 1 11.4334 1.43986 12.6667 2.26395C13.9001 3.08804 14.8614 4.25936 15.4291 5.62978C15.9967 7.00021 16.1453 8.50818 15.8559 9.96303C15.5666 11.4179 14.8523 12.7542 13.8034 13.8032Z" stroke="#BDBDBD" stroke-width="1.5" stroke-linecap="round" stroke-linejoin="round"/>
<path d="M5.6875 8.5C5.6875 9.24592 5.98381 9.96129 6.51126 10.4887C7.03871 11.0162 7.75408 11.3125 8.5 11.3125C9.24592 11.3125 9.96129 11.0162 10.4887 10.4887C11.0162 9.96129 11.3125 9.24592 11.3125 8.5C11.3125 7.75408 11.0162 7.0387 10.4887 6.51126C9.96129 5.98381 9.24592 5.6875 8.5 5.6875C7.75408 5.6875 7.03871 5.98381 6.51126 6.51126C5.98381 7.0387 5.6875 7.75408 5.6875 8.5Z" stroke="#BDBDBD" stroke-width="1.5" stroke-linecap="round" stroke-linejoin="round"/>
</svg>
